# xmcd
#
# Track frame offsets: 
#        183
#        11770
#        24220
#        37663
#        52020
#        65948
#        82090
#        94198
#        107778
#        119328
#        130763
#        142873
#        156345
#        168905
#        181455
#        195373
#        208133
#        219868
#
# Disc length: 3107 seconds
#
# Revision: 5
# Processed by: cddbd v1.5.2PL0 Copyright (c) Steve Scherf et al.
# Submitted via: ExactAudioCopy v1.3
#
DISCID=f60c2112
DTITLE=Various Artists (Priester) - Die Stars-Die Hits-Die Facts 1966
DYEAR=1966
DGENRE=Oldies
TTITLE0=Crispian St. Peters - The Pied Piper
TTITLE1=The Supremes - You Can't Hurry Love
TTITLE2=The Beach Boys - Sloop John B.
TTITLE3=The Walker Brothers - The Sun Ain't Gonna Shine Anymore
TTITLE4=Tom Jones - Green Green Grass Of Home
TTITLE5=The Kinks - Sunny Afternoon
TTITLE6=Nancy Sinatra - These Boots Are Made For Walkin'
TTITLE7=Cliff Richard - Visions
TTITLE8=Manfred Mann - Pretty Flamingo
TTITLE9=Dave Dee, Dozy, Beaky, Mick and Tich - Bend It
TTITLE10=Chris Andrews - To Whom It Concerns
TTITLE11=The Four Tops - Reach Out I'll Be There
TTITLE12=Al Martino - Spanish Eyes
TTITLE13=Bobby Hebb - Sunny
TTITLE14=The Small Faces - All Or Nothing
TTITLE15=Dusty Springfield - You Don't Have To Say You Love Me
TTITLE16=The Troggs - Wild Thing
TTITLE17=Los Bravos - Black Is Black
EXTD=
EXTT0=
EXTT1=
EXTT2=
EXTT3=
EXTT4=
EXTT5=
EXTT6=
EXTT7=
EXTT8=
EXTT9=
EXTT10=
EXTT11=
EXTT12=
EXTT13=
EXTT14=
EXTT15=
EXTT16=
EXTT17=
PLAYORDER=
